HIERARCHY
ROOT Hips
{
    OFFSET   0.000000   0.000000   0.000000
    CHANNELS 6 Xposition Yposition Zposition Zrotation Xrotation Yrotation
    JOINT Chest
    {
        OFFSET   0.000000   8.007230   0.000000
        CHANNELS 3 Zrotation Xrotation Yrotation
        JOINT Chest2
        {
            OFFSET   0.000000  22.077100   0.000000
            CHANNELS 3 Zrotation Xrotation Yrotation
            JOINT Neck
            {
                OFFSET   0.000000  23.255100   0.000000
                CHANNELS 3 Zrotation Xrotation Yrotation
                JOINT Head
                {
                    OFFSET   0.000000  14.370100   1.956600
                    CHANNELS 3 Zrotation Xrotation Yrotation
                    End Site
                    {
                        OFFSET   0.000000  19.566000   0.000000
                    }
                }
            }
            JOINT LeftCollar
            {
                OFFSET   3.911900  19.017000  -0.467063
                CHANNELS 3 Zrotation Xrotation Yrotation
                JOINT LeftShoulder
                {
                    OFFSET  10.383700   0.000000   0.000000
                    CHANNELS 3 Zrotation Xrotation Yrotation
                    JOINT LeftElbow
                    {
                        OFFSET  26.662100   0.001193   0.000980
                        CHANNELS 3 Zrotation Xrotation Yrotation
                        JOINT LeftWrist
                        {
                            OFFSET  28.869000  -0.000059  -0.000082
                            CHANNELS 3 Zrotation Xrotation Yrotation
                            JOINT LeftFinger0
                            {
                                OFFSET   2.044650  -2.323450   3.252850
                                CHANNELS 3 Zrotation Xrotation Yrotation
                                JOINT LeftFinger01
                                {
                                    OFFSET   3.088130   0.000000   0.000000
                                    CHANNELS 3 Zrotation Xrotation Yrotation
                                    JOINT LeftFinger02
                                    {
                                        OFFSET   2.639460   0.000000   0.000000
                                        CHANNELS 3 Zrotation Xrotation Yrotation
                                        End Site
                                        {
                                            OFFSET   2.582190   0.000000   0.000000
                                        }
                                    }
                                }
                            }
                            JOINT LeftFinger1
                            {
                                OFFSET   8.364480   0.000000   3.252850
                                CHANNELS 3 Zrotation Xrotation Yrotation
                                JOINT LeftFinger11
                                {
                                    OFFSET   4.646930   0.000000   0.000000
                                    CHANNELS 3 Zrotation Xrotation Yrotation
                                    JOINT LeftFinger12
                                    {
                                        OFFSET   2.323470   0.000000   0.000000
                                        CHANNELS 3 Zrotation Xrotation Yrotation
                                        End Site
                                        {
                                            OFFSET   2.273050   0.000000   0.000000
                                        }
                                    }
                                }
                            }
                            JOINT LeftFinger2
                            {
                                OFFSET   8.364490   0.000016   1.078090
                                CHANNELS 3 Zrotation Xrotation Yrotation
                                JOINT LeftFinger21
                                {
                                    OFFSET   5.111610   0.000000   0.000000
                                    CHANNELS 3 Zrotation Xrotation Yrotation
                                    JOINT LeftFinger22
                                    {
                                        OFFSET   2.788150   0.000016   0.000000
                                        CHANNELS 3 Zrotation Xrotation Yrotation
                                        End Site
                                        {
                                            OFFSET   2.727660   0.000000   0.000000
                                        }
                                    }
                                }
                            }
                            JOINT LeftFinger3
                            {
                                OFFSET   7.899780   0.000015  -1.078090
                                CHANNELS 3 Zrotation Xrotation Yrotation
                                JOINT LeftFinger31
                                {
                                    OFFSET   4.646930   0.000000   0.000000
                                    CHANNELS 3 Zrotation Xrotation Yrotation
                                    JOINT LeftFinger32
                                    {
                                        OFFSET   2.323470   0.000000   0.000000
                                        CHANNELS 3 Zrotation Xrotation Yrotation
                                        End Site
                                        {
                                            OFFSET   2.273050   0.000000   0.000000
                                        }
                                    }
                                }
                            }
                            JOINT LeftFinger4
                            {
                                OFFSET   7.435090   0.000000  -3.252850
                                CHANNELS 3 Zrotation Xrotation Yrotation
                                JOINT LeftFinger41
                                {
                                    OFFSET   3.717550   0.000000   0.000000
                                    CHANNELS 3 Zrotation Xrotation Yrotation
                                    JOINT LeftFinger42
                                    {
                                        OFFSET   1.858770   0.000000   0.000000
                                        CHANNELS 3 Zrotation Xrotation Yrotation
                                        End Site
                                        {
                                            OFFSET   1.818440   0.000000   0.000000
                                        }
                                    }
                                }
                            }
                        }
                    }
                }
            }
            JOINT RightCollar
            {
                OFFSET  -3.911910  19.017000  -0.467062
                CHANNELS 3 Zrotation Xrotation Yrotation
                JOINT RightShoulder
                {
                    OFFSET -10.383700   0.000014   0.000000
                    CHANNELS 3 Zrotation Xrotation Yrotation
                    JOINT RightElbow
                    {
                        OFFSET -26.662100   0.001225   0.001091
                        CHANNELS 3 Zrotation Xrotation Yrotation
                        JOINT RightWrist
                        {
                            OFFSET -28.869000  -0.000020  -0.000085
                            CHANNELS 3 Zrotation Xrotation Yrotation
                            JOINT RightFinger0
                            {
                                OFFSET  -2.044650  -2.323490   3.252850
                                CHANNELS 3 Zrotation Xrotation Yrotation
                                JOINT RightFinger01
                                {
                                    OFFSET  -3.088130   0.000000   0.000000
                                    CHANNELS 3 Zrotation Xrotation Yrotation
                                    JOINT RightFinger02
                                    {
                                        OFFSET  -2.639460   0.000000   0.000000
                                        CHANNELS 3 Zrotation Xrotation Yrotation
                                        End Site
                                        {
                                            OFFSET  -2.582190   0.000000   0.000000
                                        }
                                    }
                                }
                            }
                            JOINT RightFinger1
                            {
                                OFFSET  -8.364480   0.000000   3.252850
                                CHANNELS 3 Zrotation Xrotation Yrotation
                                JOINT RightFinger11
                                {
                                    OFFSET  -4.646930   0.000000   0.000000
                                    CHANNELS 3 Zrotation Xrotation Yrotation
                                    JOINT RightFinger12
                                    {
                                        OFFSET  -2.323470   0.000000   0.000000
                                        CHANNELS 3 Zrotation Xrotation Yrotation
                                        End Site
                                        {
                                            OFFSET  -2.273050   0.000000   0.000000
                                        }
                                    }
                                }
                            }
                            JOINT RightFinger2
                            {
                                OFFSET  -8.364480   0.000000   1.078090
                                CHANNELS 3 Zrotation Xrotation Yrotation
                                JOINT RightFinger21
                                {
                                    OFFSET  -5.111620   0.000000   0.000000
                                    CHANNELS 3 Zrotation Xrotation Yrotation
                                    JOINT RightFinger22
                                    {
                                        OFFSET  -2.788160   0.000000   0.000000
                                        CHANNELS 3 Zrotation Xrotation Yrotation
                                        End Site
                                        {
                                            OFFSET  -2.727660   0.000000   0.000000
                                        }
                                    }
                                }
                            }
                            JOINT RightFinger3
                            {
                                OFFSET  -7.899780   0.000000  -1.078090
                                CHANNELS 3 Zrotation Xrotation Yrotation
                                JOINT RightFinger31
                                {
                                    OFFSET  -4.646930   0.000000   0.000000
                                    CHANNELS 3 Zrotation Xrotation Yrotation
                                    JOINT RightFinger32
                                    {
                                        OFFSET  -2.323470   0.000000   0.000000
                                        CHANNELS 3 Zrotation Xrotation Yrotation
                                        End Site
                                        {
                                            OFFSET  -2.273050   0.000000   0.000000
                                        }
                                    }
                                }
                            }
                            JOINT RightFinger4
                            {
                                OFFSET  -7.435090   0.000000  -3.252850
                                CHANNELS 3 Zrotation Xrotation Yrotation
                                JOINT RightFinger41
                                {
                                    OFFSET  -3.717550   0.000000   0.000000
                                    CHANNELS 3 Zrotation Xrotation Yrotation
                                    JOINT RightFinger42
                                    {
                                        OFFSET  -1.858760   0.000000   0.000000
                                        CHANNELS 3 Zrotation Xrotation Yrotation
                                        End Site
                                        {
                                            OFFSET  -1.818440   0.000000   0.000000
                                        }
                                    }
                                }
                            }
                        }
                    }
                }
            }
        }
    }
    JOINT LeftHip
    {
        OFFSET   9.783030   0.000000   0.000000
        CHANNELS 3 Zrotation Xrotation Yrotation
        JOINT LeftKnee
        {
            OFFSET   0.000063 -41.789100   0.000608
            CHANNELS 3 Zrotation Xrotation Yrotation
            JOINT LeftAnkle
            {
                OFFSET   0.000048 -41.133200  -0.000184
                CHANNELS 3 Zrotation Xrotation Yrotation
                JOINT LeftToe
                {
                    OFFSET   0.000000  -6.358960  14.674500
                    CHANNELS 3 Zrotation Xrotation Yrotation
                    End Site
                    {
                        OFFSET   0.000000   0.000000   3.913200
                    }
                }
            }
        }
    }
    JOINT RightHip
    {
        OFFSET  -9.783030   0.000000   0.000000
        CHANNELS 3 Zrotation Xrotation Yrotation
        JOINT RightKnee
        {
            OFFSET   0.000071 -41.789100   0.001239
            CHANNELS 3 Zrotation Xrotation Yrotation
            JOINT RightAnkle
            {
                OFFSET   0.000037 -41.133200  -0.000166
                CHANNELS 3 Zrotation Xrotation Yrotation
                JOINT RightToe
                {
                    OFFSET   0.000000  -6.358960  14.674500
                    CHANNELS 3 Zrotation Xrotation Yrotation
                    End Site
                    {
                        OFFSET   0.000000   0.000000   3.913200
                    }
                }
            }
        }
    }
}
MOTION
Frames: 6
Frame Time:   0.016667
  1.090830  89.550200  -1.454130  -2.448450  -1.947500   1.122450   1.215550   1.856410  -0.705687   2.455810   3.697270  -1.451770   0.615840   1.177240  -0.015159   1.012970   2.389810   5.902700  -3.608760   4.064900   0.778581 -73.173600  15.995400  -5.874700  -2.937050  -4.470340  -9.264930   6.080810  -8.585530   9.194460  43.093000  28.025500 -62.763600 -19.616000   0.009096   0.003303  -4.807110   0.001987  -0.003972 -23.597800   3.648980  -8.289100 -19.523700  -0.002695  -0.000424 -13.666600   0.000000  -0.002082 -24.166600   2.309420  -5.131600 -24.270100  -0.000291   0.000351 -16.163900  -0.000187  -0.000925 -22.054200   0.659572  -1.627680 -22.063600  -0.001958   0.004526 -14.694400  -0.001244   0.001137 -23.181500   0.577571  -1.348550 -34.782400  -0.007403   0.012289 -23.165100  -0.004041   0.001154   3.058270   0.811950   7.477880  74.998900   8.298090   3.412190   1.328950  -3.053900   6.145550 -10.709100  -9.943200   1.801850 -49.887800  36.788600  73.851200  18.255400   0.008692  -0.002818   4.127700   0.004329   0.001828  27.131600   4.709050   9.102140  22.505500  -0.001978  -0.002421  15.753800  -0.001676   0.006957  27.045700   4.693870   9.109910  28.775700  -0.004321  -0.001097  19.164600  -0.003014  -0.001550  27.371900   3.053320   5.876460  29.297300  -0.004356  -0.002636  19.512000  -0.003138  -0.002106  31.423500   0.987953   1.615320  47.156000  -0.003657  -0.011358  31.405900  -0.004998  -0.000381   2.969480   4.653310   4.642120   1.109380   0.066090  11.907600  -2.006370  -1.824170   4.350850  -0.000000   0.000000   0.000000   0.200467   0.426557  -3.437480   1.012400   4.501240  -9.745290  -1.378270  -2.364890  -4.059250  -0.000000   0.000000   0.000000
  1.090820  89.550200  -1.464000  -2.456960  -1.935650   1.139370   1.215610   1.853260  -0.707474   2.455940   3.690940  -1.455270   0.633432   1.175720  -0.015190   1.041960   2.385230   5.934750  -3.609360   4.058080   0.793708 -73.174500  15.998000  -5.882450  -2.939490  -4.471690  -9.297570   6.081520  -8.585970   9.175760  43.096500  28.030100 -62.757600 -19.616100   0.009096   0.003297  -4.807270   0.001992  -0.003976 -23.639200   3.681480  -8.345500 -19.561000  -0.002695  -0.000422 -13.692700   0.000000  -0.002081 -24.175200   2.305480  -5.120880 -24.278300  -0.000289   0.000350 -16.169400  -0.000186  -0.000923 -22.076700   0.653813  -1.611680 -22.086000  -0.001957   0.004527 -14.709300  -0.001244   0.001138 -23.195300   0.573181  -1.338190 -34.802900  -0.007401   0.012290 -23.178800  -0.004040   0.001156   3.062700   0.808800   7.494270  74.990200   8.333830   3.454300   1.319000  -3.075860   6.093380 -10.741200  -9.970590   1.777110 -49.902000  36.806000  73.915000  18.242400   0.008700  -0.002820   4.121230   0.004329   0.001827  27.152300   4.723070   9.120630  22.524100  -0.001977  -0.002427  15.767000  -0.001671   0.006957  27.042200   4.704790   9.130000  28.785300  -0.004318  -0.001099  19.171000  -0.003011  -0.001550  27.369400   3.065310   5.898670  29.312500  -0.004355  -0.002637  19.522100  -0.003134  -0.002107  31.432700   0.987952   1.615320  47.169800  -0.003653  -0.011365  31.415100  -0.004996  -0.000383   2.980540   4.662630   4.635120   1.108200   0.011064  11.903700  -2.006520  -1.795450   4.345980  -0.000000   0.000000   0.000000   0.199374   0.492298  -3.440990   1.025720   4.418620  -9.754970  -1.377510  -2.357620  -4.059220  -0.000000   0.000000   0.000000
  1.090780  89.550200  -1.479430  -2.466640  -1.923090   1.168740   1.215690   1.850110  -0.709897   2.456150   3.684610  -1.460070   0.661595   1.168180  -0.015227   1.088330   2.368000   5.985370  -3.609910   4.047690   0.808831 -73.170900  16.003600  -5.904770  -2.941070  -4.472810  -9.349300   6.087640  -8.586400   9.157060  43.106200  28.037000 -62.747500 -19.616200   0.009095   0.003290  -4.807510   0.001996  -0.003981 -23.701600   3.728190  -8.425350 -19.617000  -0.002698  -0.000418 -13.731900   0.000000  -0.002079 -24.189200   2.299640  -5.104570 -24.291800  -0.000283   0.000349 -16.178300  -0.000182  -0.000919 -22.110000   0.645645  -1.588800 -22.119000  -0.001953   0.004530 -14.731300  -0.001241   0.001140 -23.215000   0.566680  -1.320930 -34.832200  -0.007395   0.012292 -23.198300  -0.004035   0.001161   3.072600   0.799915   7.520600  74.971300   8.409610   3.527630   1.307230  -3.121330   6.038520 -10.788100  -9.998030   1.742380 -49.926100  36.825600  74.010800  18.209700   0.008709  -0.002822   4.104870   0.004328   0.001826  27.179400   4.747060   9.155540  22.548900  -0.001970  -0.002433  15.784300  -0.001662   0.006956  27.036000   4.723970   9.167390  28.795000  -0.004310  -0.001106  19.177500  -0.003003  -0.001550  27.365300   3.085350   5.936860  29.327600  -0.004348  -0.002640  19.532200  -0.003128  -0.002108  31.441800   0.987952   1.615320  47.183600  -0.003644  -0.011379  31.424300  -0.004989  -0.000391   2.999450   4.671970   4.624210   1.100880  -0.043963  11.897800  -2.006870  -1.766740   4.334290  -0.000000   0.000000   0.000000   0.195334   0.558037  -3.446990   1.047630   4.325580  -9.771480  -1.376530  -2.347150  -4.059180   0.000000   0.000000  -0.000000
  1.087690  89.550500  -1.489110  -2.467450  -1.922250   1.194100   1.215740   1.855140  -0.710488   2.456390   3.694660  -1.461380   0.682435   1.149590  -0.015231   1.122590   2.330200   6.020620  -3.611820   4.041400   0.807117 -73.155700  16.011000  -5.941820  -2.934730  -4.465320  -9.387340   6.103940  -8.588510   9.162680  43.112600  28.037400 -62.732700 -19.616100   0.009092   0.003297  -4.807610   0.001995  -0.003989 -23.734500   3.748330  -8.457140 -19.645900  -0.002703  -0.000412 -13.752200   0.000000  -0.002074 -24.198000   2.296040  -5.094320 -24.300200  -0.000274   0.000350 -16.183900  -0.000175  -0.000912 -22.125100   0.642167  -1.578710 -22.134000  -0.001946   0.004536 -14.741300  -0.001235   0.001142 -23.219700   0.562628  -1.306610 -34.839000  -0.007384   0.012296 -23.202900  -0.004029   0.001171   3.086500   0.783730   7.539270  74.934700   8.514760   3.593760   1.308380  -3.181980   6.035580 -10.804100  -9.967120   1.727190 -49.949600  36.821900  74.072400  18.155500   0.008697  -0.002798   4.077770   0.004328   0.001829  27.185600   4.769310   9.194300  22.556000  -0.001956  -0.002431  15.789200  -0.001653   0.006950  27.022900   4.742520   9.208070  28.751900  -0.004295  -0.001120  19.148800  -0.002991  -0.001549  27.355400   3.102560   5.972310  29.290300  -0.004328  -0.002650  19.507400  -0.003121  -0.002106  31.424600   0.991176   1.621680  47.158000  -0.003631  -0.011398  31.407300  -0.004976  -0.000402   3.017390   4.661630   4.615540   1.086120  -0.029684  11.896100  -2.015120  -1.774510   4.316690   0.000000   0.000000  -0.000000   0.188789   0.558004  -3.453410   1.059410   4.313350  -9.784950  -1.376430  -2.341590  -4.062750   0.000000   0.000000   0.000000
  1.083170  89.551000  -1.498610  -2.466970  -1.922110   1.222090   1.215640   1.865570  -0.710784   2.456290   3.715500  -1.462180   0.700400   1.128990  -0.015235   1.152100   2.288680   6.051340  -3.615850   4.036230   0.802944 -73.134700  16.020000  -5.991210  -2.924710  -4.456750  -9.417550   6.122340  -8.596200   9.171610  43.109400  28.028600 -62.715000 -19.616000   0.009086   0.003304  -4.807640   0.001993  -0.003993 -23.765800   3.762760  -8.476660 -19.672900  -0.002711  -0.000404 -13.771100  -0.000000  -0.002068 -24.209600   2.294330  -5.086900 -24.311500  -0.000262   0.000352 -16.191500  -0.000167  -0.000903 -22.140300   0.640305  -1.572690 -22.149100  -0.001935   0.004544 -14.751300  -0.001227   0.001146 -23.228400   0.560687  -1.293420 -34.852100  -0.007370   0.012302 -23.211500  -0.004021   0.001183   3.102010   0.766065   7.557430  74.882000   8.618500   3.661900   1.309870  -3.242450   6.035470 -10.827800  -9.918690   1.721890 -49.966400  36.806800  74.107400  18.097300   0.008674  -0.002761   4.048640   0.004327   0.001834  27.182700   4.788860   9.233420  22.557000  -0.001936  -0.002428  15.789900  -0.001641   0.006942  27.004300   4.759950   9.248290  28.676900  -0.004274  -0.001138  19.098800  -0.002976  -0.001547  27.343200   3.117700   6.004240  29.236100  -0.004305  -0.002667  19.471300  -0.003113  -0.002104  31.392700   0.997155   1.633500  47.110500  -0.003614  -0.011424  31.375600  -0.004960  -0.000419   3.033330   4.641740   4.610720   1.074100   0.000687  11.891800  -2.026930  -1.787420   4.296220  -0.000000   0.000000   0.000000   0.184696   0.557796  -3.457360   1.063090   4.311450  -9.798450  -1.376850  -2.339180  -4.072880   0.000000   0.000000   0.000000
  1.080750  89.551500  -1.510350  -2.466270  -1.928570   1.255040   1.214700   1.878070  -0.711876   2.454590   3.740470  -1.464690   0.713172   1.112440  -0.015289   1.173240   2.254660   6.078380  -3.621450   4.032940   0.797306 -73.114500  16.025800  -6.052940  -2.914490  -4.455170  -9.431440   6.138280  -8.612800   9.179100  43.092800  28.001000 -62.700400 -19.613000   0.009077   0.003284  -4.806330   0.001994  -0.003993 -23.811400   3.779420  -8.495500 -19.711700  -0.002722  -0.000392 -13.798300   0.000033  -0.002061 -24.232300   2.294630  -5.083330 -24.334200  -0.000247   0.000353 -16.206600  -0.000158  -0.000893 -22.167900   0.639381  -1.568090 -22.176700  -0.001922   0.004552 -14.769600  -0.001218   0.001152 -23.264700   0.561178  -1.281210 -34.906600  -0.007353   0.012308 -23.247800  -0.004010   0.001198   3.117470   0.753564   7.578220  74.822700   8.680260   3.726390   1.307080  -3.280670   6.068790 -10.885100  -9.879820   1.728240 -49.983200  36.778100  74.078200  18.046400   0.008652  -0.002737   4.023190   0.004322   0.001841  27.150000   4.798750   9.267140  22.532300  -0.001910  -0.002434  15.772600  -0.001625   0.006935  26.984000   4.772280   9.279530  28.591900  -0.004245  -0.001156  19.042200  -0.002960  -0.001550  27.336000   3.127100   6.026550  29.205700  -0.004289  -0.002685  19.451100  -0.003098  -0.002105  31.351100   1.004950   1.648980  47.048300  -0.003592  -0.011458  31.334200  -0.004941  -0.000441   3.042980   4.614040   4.614900   1.066180   0.050781  11.872200  -2.033720  -1.800300   4.277110  -0.000000   0.000000   0.000000   0.183964   0.555254  -3.457130   1.063950   4.318440  -9.811780  -1.377600  -2.339080  -4.090650  -0.000000   0.000000   0.000000
